<svg width="29" height="28" viewBox="0 0 29 28" fill="none" xmlns="http://www.w3.org/2000/svg">
<path d="M28.2101 0.302553C28.7821 0.680791 29.0823 1.3346 28.9747 1.98841L25.3497 24.4666C25.2648 24.9907 24.9306 25.45 24.4435 25.7094C23.9564 25.9687 23.373 26.0011 22.8575 25.7958L15.7038 22.959L13.4325 26.9846C13.138 27.5087 12.5093 27.7735 11.9032 27.6276C11.2972 27.4817 10.8724 26.9629 10.8724 26.3686V21.1813C10.8724 20.8949 10.9743 20.6139 11.1612 20.387L20.5239 8.89937C20.6655 8.51573 20.1558 8.12668 19.7876 8.44548L9.64893 17.1936L7.83643 18.7552C7.31534 19.2037 6.57335 19.3279 5.92198 19.0686L1.10753 17.1558C0.473153 16.9018 0.0426839 16.329 0.00303547 15.6698C-0.036613 15.0106 0.314559 14.3892 0.91495 14.0596L26.2899 0.226905C26.896 -0.102702 27.6437 -0.0702818 28.2157 0.302553H28.2101Z" fill="white"/>
</svg>
