<svg width="22" height="20" viewBox="0 0 22 20" fill="none" xmlns="http://www.w3.org/2000/svg">
<path d="M0 3.21968C0 1.44131 1.23105 0 2.75 0H19.25C20.7668 0 22 1.44131 22 3.21968V16.0984C22 17.8743 20.7668 19.3181 19.25 19.3181H2.75C1.23105 19.3181 0 17.8743 0 16.0984V3.21968ZM2.0625 3.21968V4.33148L9.47461 11.455C10.3598 12.3103 11.6402 12.3103 12.5254 11.455L19.9375 4.33148V3.17441C19.9375 2.77698 19.6281 2.36949 19.25 2.36949H2.75C2.37016 2.36949 2.0625 2.77698 2.0625 3.17441V3.21968ZM2.0625 7.45558V16.0984C2.0625 16.5411 2.37016 16.9033 2.75 16.9033H19.25C19.6281 16.9033 19.9375 16.5411 19.9375 16.0984V7.45558L13.8359 13.3214C12.1859 14.9061 9.81406 14.9061 8.12539 13.3214L2.0625 7.45558Z" fill="#CFCFCF"/>
</svg>
