<svg width="16" height="16" viewBox="0 0 16 16" fill="none" xmlns="http://www.w3.org/2000/svg">
<path d="M8.00356 3.83818C5.73214 3.83818 3.89999 5.6417 3.89999 7.87764C3.89999 10.1136 5.73214 11.9171 8.00356 11.9171C10.275 11.9171 12.1071 10.1136 12.1071 7.87764C12.1071 5.6417 10.275 3.83818 8.00356 3.83818ZM8.00356 10.5038C6.53571 10.5038 5.33571 9.32607 5.33571 7.87764C5.33571 6.4292 6.53214 5.25146 8.00356 5.25146C9.47499 5.25146 10.6714 6.4292 10.6714 7.87764C10.6714 9.32607 9.47142 10.5038 8.00356 10.5038ZM13.2321 3.67295C13.2321 4.19678 12.8036 4.61514 12.275 4.61514C11.7429 4.61514 11.3179 4.19326 11.3179 3.67295C11.3179 3.15264 11.7464 2.73076 12.275 2.73076C12.8036 2.73076 13.2321 3.15264 13.2321 3.67295ZM15.95 4.6292C15.8893 3.36709 15.5964 2.24912 14.6571 1.32803C13.7214 0.406933 12.5857 0.118652 11.3036 0.0553711C9.98214 -0.018457 6.02142 -0.018457 4.69999 0.0553711C3.42142 0.115137 2.28571 0.403418 1.34642 1.32451C0.407136 2.24561 0.11785 3.36357 0.0535644 4.62568C-0.0214355 5.92646 -0.0214355 9.82529 0.0535644 11.1261C0.114279 12.3882 0.407136 13.5062 1.34642 14.4272C2.28571 15.3483 3.41785 15.6366 4.69999 15.6999C6.02142 15.7737 9.98214 15.7737 11.3036 15.6999C12.5857 15.6401 13.7214 15.3519 14.6571 14.4272C15.5928 13.5062 15.8857 12.3882 15.95 11.1261C16.025 9.82529 16.025 5.92998 15.95 4.6292ZM14.2428 12.5218C13.9643 13.2108 13.425 13.7417 12.7214 14.0194C11.6679 14.4308 9.16785 14.3358 8.00356 14.3358C6.83928 14.3358 4.33571 14.4272 3.28571 14.0194C2.58571 13.7452 2.04642 13.2144 1.76428 12.5218C1.34642 11.4847 1.44285 9.02373 1.44285 7.87764C1.44285 6.73154 1.34999 4.26709 1.76428 3.2335C2.04285 2.54443 2.58214 2.01357 3.28571 1.73584C4.33928 1.32451 6.83928 1.41943 8.00356 1.41943C9.16785 1.41943 11.6714 1.32803 12.7214 1.73584C13.4214 2.01006 13.9607 2.54092 14.2428 3.2335C14.6607 4.27061 14.5643 6.73154 14.5643 7.87764C14.5643 9.02373 14.6607 11.4882 14.2428 12.5218Z" fill="black"/>
</svg>
