<svg width="17" height="14" viewBox="0 0 17 14" fill="none" xmlns="http://www.w3.org/2000/svg">
<path d="M15.2525 3.44097C15.2633 3.59198 15.2633 3.74302 15.2633 3.89403C15.2633 8.49997 11.7576 13.8071 5.35025 13.8071C3.37626 13.8071 1.54252 13.2354 0 12.243C0.280467 12.2754 0.550109 12.2862 0.841367 12.2862C2.47015 12.2862 3.96953 11.736 5.16687 10.7976C3.63514 10.7652 2.35151 9.76205 1.90925 8.38133C2.125 8.41367 2.34072 8.43525 2.56727 8.43525C2.88007 8.43525 3.19291 8.39209 3.48414 8.31662C1.8877 7.99299 0.690326 6.59072 0.690326 4.8972V4.85406C1.15414 5.11295 1.69353 5.27475 2.26518 5.2963C1.32673 4.67065 0.711908 3.60277 0.711908 2.39464C0.711908 1.74745 0.884465 1.15417 1.18651 0.636404C2.90162 2.75061 5.47968 4.1313 8.37051 4.28234C8.31659 4.02346 8.28421 3.75381 8.28421 3.48414C8.28421 1.56407 9.83752 0 11.7683 0C12.7715 0 13.6776 0.420684 14.314 1.10025C15.1014 0.949244 15.8565 0.657986 16.5253 0.258885C16.2664 1.06791 15.7163 1.74748 14.9936 2.17892C15.6948 2.10345 16.3743 1.90925 16.9999 1.6396C16.5254 2.32993 15.9321 2.94475 15.2525 3.44097Z" fill="black"/>
</svg>
